<svg id="visual" viewBox="0 0 960 300" width="960" height="300" xmlns="http://www.w3.org/2000/svg" xmlns:xlink="http://www.w3.org/1999/xlink" version="1.1"><rect x="0" y="0" width="960" height="300" fill="#1d1d1d"></rect><path d="M0 111L22.8 107.8C45.7 104.7 91.3 98.3 137 95.8C182.7 93.3 228.3 94.7 274 92.5C319.7 90.3 365.3 84.7 411.2 84.7C457 84.7 503 90.3 548.8 94.3C594.7 98.3 640.3 100.7 686 101.5C731.7 102.3 777.3 101.7 823 99.3C868.7 97 914.3 93 937.2 91L960 89L960 0L937.2 0C914.3 0 868.7 0 823 0C777.3 0 731.7 0 686 0C640.3 0 594.7 0 548.8 0C503 0 457 0 411.2 0C365.3 0 319.7 0 274 0C228.3 0 182.7 0 137 0C91.3 0 45.7 0 22.8 0L0 0Z" fill="#fa7268"></path><path d="M0 83L22.8 80.2C45.7 77.3 91.3 71.7 137 70.5C182.7 69.3 228.3 72.7 274 76C319.7 79.3 365.3 82.7 411.2 85C457 87.3 503 88.7 548.8 90.3C594.7 92 640.3 94 686 91C731.7 88 777.3 80 823 73.8C868.7 67.7 914.3 63.3 937.2 61.2L960 59L960 0L937.2 0C914.3 0 868.7 0 823 0C777.3 0 731.7 0 686 0C640.3 0 594.7 0 548.8 0C503 0 457 0 411.2 0C365.3 0 319.7 0 274 0C228.3 0 182.7 0 137 0C91.3 0 45.7 0 22.8 0L0 0Z" fill="#ef5f67"></path><path d="M0 61L22.8 60.3C45.7 59.7 91.3 58.3 137 58.7C182.7 59 228.3 61 274 59.8C319.7 58.7 365.3 54.3 411.2 52.7C457 51 503 52 548.8 55C594.7 58 640.3 63 686 61.7C731.7 60.3 777.3 52.7 823 48.5C868.7 44.3 914.3 43.7 937.2 43.3L960 43L960 0L937.2 0C914.3 0 868.7 0 823 0C777.3 0 731.7 0 686 0C640.3 0 594.7 0 548.8 0C503 0 457 0 411.2 0C365.3 0 319.7 0 274 0C228.3 0 182.7 0 137 0C91.3 0 45.7 0 22.8 0L0 0Z" fill="#e34c67"></path><path d="M0 37L22.8 35.3C45.7 33.7 91.3 30.3 137 30.8C182.7 31.3 228.3 35.7 274 36.3C319.7 37 365.3 34 411.2 36.3C457 38.7 503 46.3 548.8 49C594.7 51.7 640.3 49.3 686 46.2C731.7 43 777.3 39 823 38.3C868.7 37.7 914.3 40.3 937.2 41.7L960 43L960 0L937.2 0C914.3 0 868.7 0 823 0C777.3 0 731.7 0 686 0C640.3 0 594.7 0 548.8 0C503 0 457 0 411.2 0C365.3 0 319.7 0 274 0C228.3 0 182.7 0 137 0C91.3 0 45.7 0 22.8 0L0 0Z" fill="#d53867"></path><path d="M0 16L22.8 17.2C45.7 18.3 91.3 20.7 137 20.5C182.7 20.3 228.3 17.7 274 16.5C319.7 15.3 365.3 15.7 411.2 15.8C457 16 503 16 548.8 17.3C594.7 18.7 640.3 21.3 686 21.2C731.7 21 777.3 18 823 16.3C868.7 14.7 914.3 14.3 937.2 14.2L960 14L960 0L937.2 0C914.3 0 868.7 0 823 0C777.3 0 731.7 0 686 0C640.3 0 594.7 0 548.8 0C503 0 457 0 411.2 0C365.3 0 319.7 0 274 0C228.3 0 182.7 0 137 0C91.3 0 45.7 0 22.8 0L0 0Z" fill="#c62368"></path></svg>